<svg width="21" height="22" viewBox="0 0 21 22" fill="none" xmlns="http://www.w3.org/2000/svg">
<path d="M10.9083 1.16981L11.2837 0.839494L11.2837 0.839493L10.9083 1.16981ZM10.5385 1.00015L10.544 0.500183L10.5385 1.00015ZM12.7868 3.30442L12.4114 3.63473L12.5607 3.80442H12.7868V3.30442ZM8.1936 3.30442V3.80442H8.41301L8.56156 3.64295L8.1936 3.30442ZM10.165 1.16159L10.533 1.50012L10.533 1.50012L10.165 1.16159ZM8.78097 4.14295L8.41301 3.80442V3.80442L8.78097 4.14295ZM10.5247 2.24759L10.9001 1.91728L10.533 1.50012L10.1567 1.90906L10.5247 2.24759ZM3.78947 19.8953V20.3953H4.24325L4.28713 19.9437L3.78947 19.8953ZM16.7235 19.8953L16.2258 19.9437L16.2697 20.3953H16.7235V19.8953ZM12.1854 4.13473L11.81 4.46504V4.46505L12.1854 4.13473ZM15.7175 19.8953V20.3953H16.2819L16.2139 19.8351L15.7175 19.8953ZM4.79543 19.8953L4.29907 19.8351L4.2311 20.3953H4.79543V19.8953ZM11.2837 0.839493C11.0964 0.626649 10.8275 0.503316 10.544 0.500183L10.533 1.50012L10.533 1.50012L11.2837 0.839493ZM13.1621 2.9741L11.2837 0.839494L10.533 1.50012L12.4114 3.63473L13.1621 2.9741ZM17.4736 2.80442H12.7868V3.80442H17.4736V2.80442ZM20.4736 5.80442C20.4736 4.14756 19.1305 2.80442 17.4736 2.80442V3.80442C18.5782 3.80442 19.4736 4.69985 19.4736 5.80442H20.4736ZM20.4736 18.3953V5.80442H19.4736V18.3953H20.4736ZM17.4736 21.3953C19.1305 21.3953 20.4736 20.0522 20.4736 18.3953H19.4736C19.4736 19.4999 18.5782 20.3953 17.4736 20.3953V21.3953ZM3.50012 21.3953H17.4736V20.3953H3.50012V21.3953ZM0.500122 18.3953C0.500122 20.0522 1.84327 21.3953 3.50012 21.3953V20.3953C2.39555 20.3953 1.50012 19.4999 1.50012 18.3953H0.500122ZM0.500122 5.80442V18.3953H1.50012V5.80442H0.500122ZM3.50012 2.80442C1.84327 2.80442 0.500122 4.14756 0.500122 5.80442H1.50012C1.50012 4.69985 2.39555 3.80442 3.50012 3.80442V2.80442ZM8.1936 2.80442H3.50012V3.80442H8.1936V2.80442ZM9.79703 0.823066L7.82563 2.96589L8.56156 3.64295L10.533 1.50012L9.79703 0.823066ZM10.544 0.500183C10.2605 0.49705 9.98899 0.61441 9.79703 0.823067L10.533 1.50012L10.533 1.50012L10.544 0.500183ZM9.14894 4.48147L10.8927 2.58612L10.1567 1.90906L8.41301 3.80442L9.14894 4.48147ZM8.41301 4.80442C8.69268 4.80442 8.95958 4.6873 9.14894 4.48147L8.41301 3.80442L8.41301 3.80442V4.80442ZM3.50012 4.80442H8.41301V3.80442H3.50012V4.80442ZM2.50012 5.80442C2.50012 5.25213 2.94784 4.80442 3.50012 4.80442V3.80442C2.39555 3.80442 1.50012 4.69985 1.50012 5.80442H2.50012ZM2.50012 18.3953V5.80442H1.50012V18.3953H2.50012ZM3.50012 19.3953C2.94784 19.3953 2.50012 18.9476 2.50012 18.3953H1.50012C1.50012 19.4999 2.39555 20.3953 3.50012 20.3953V19.3953ZM3.78947 19.3953H3.50012V20.3953H3.78947V19.3953ZM4.28713 19.9437C4.51376 17.6107 6.48114 15.7868 8.8739 15.7868V14.7868C5.96128 14.7868 3.56773 17.0066 3.29181 19.847L4.28713 19.9437ZM8.8739 15.7868H11.6391V14.7868H8.8739V15.7868ZM11.6391 15.7868C14.0318 15.7868 15.9992 17.6107 16.2258 19.9437L17.2211 19.847C16.9452 17.0066 14.5517 14.7868 11.6391 14.7868V15.7868ZM17.4736 19.3953H16.7235V20.3953H17.4736V19.3953ZM18.4736 18.3953C18.4736 18.9476 18.0259 19.3953 17.4736 19.3953V20.3953C18.5782 20.3953 19.4736 19.4999 19.4736 18.3953H18.4736ZM18.4736 5.80442V18.3953H19.4736V5.80442H18.4736ZM17.4736 4.80442C18.0259 4.80442 18.4736 5.25213 18.4736 5.80442H19.4736C19.4736 4.69985 18.5782 3.80442 17.4736 3.80442V4.80442ZM12.5607 4.80442H17.4736V3.80442H12.5607V4.80442ZM11.81 4.46505C11.9999 4.68078 12.2734 4.80442 12.5607 4.80442V3.80442V3.80442L11.81 4.46505ZM10.1493 2.5779L11.81 4.46504L12.5607 3.80442L10.9001 1.91728L10.1493 2.5779ZM16.2139 19.8351C15.9371 17.5539 13.9948 15.7868 11.6391 15.7868V16.7868C13.483 16.7868 15.0046 18.1702 15.2212 19.9556L16.2139 19.8351ZM11.6391 15.7868H8.8739V16.7868H11.6391V15.7868ZM8.8739 15.7868C6.51813 15.7868 4.57584 17.5539 4.29907 19.8351L5.29179 19.9556C5.50839 18.1702 7.02996 16.7868 8.8739 16.7868V15.7868ZM15.7175 19.3953H4.79543V20.3953H15.7175V19.3953ZM12.6275 10.2562C12.6275 11.4639 11.6484 12.443 10.4406 12.443V13.443C12.2007 13.443 13.6275 12.0162 13.6275 10.2562H12.6275ZM10.4406 8.06928C11.6484 8.06928 12.6275 9.04837 12.6275 10.2562H13.6275C13.6275 8.49609 12.2007 7.06928 10.4406 7.06928V8.06928ZM8.25377 10.2562C8.25377 9.04837 9.23286 8.06928 10.4406 8.06928V7.06928C8.68058 7.06928 7.25377 8.49609 7.25377 10.2562H8.25377ZM10.4406 12.443C9.23286 12.443 8.25377 11.4639 8.25377 10.2562H7.25377C7.25377 12.0162 8.68058 13.443 10.4406 13.443V12.443ZM13.6275 10.2562C13.6275 12.0162 12.2007 13.443 10.4406 13.443V14.443C12.753 14.443 14.6275 12.5685 14.6275 10.2562H13.6275ZM10.4406 7.06928C12.2007 7.06928 13.6275 8.49609 13.6275 10.2562H14.6275C14.6275 7.9438 12.753 6.06928 10.4406 6.06928V7.06928ZM7.25377 10.2562C7.25377 8.49609 8.68058 7.06928 10.4406 7.06928V6.06928C8.12829 6.06928 6.25377 7.9438 6.25377 10.2562H7.25377ZM10.4406 13.443C8.68058 13.443 7.25377 12.0162 7.25377 10.2562H6.25377C6.25377 12.5685 8.12829 14.443 10.4406 14.443V13.443Z" fill="black" fill-opacity="0.5"/>
</svg>
